<?xml version="1.0" encoding="UTF-8"?>
<svg id="Camada_2" data-name="Camada 2" xmlns="http://www.w3.org/2000/svg" viewBox="0 0 242.13 86.02">
  <g id="Camada_1-2" data-name="Camada 1">
    <g>
      <path d="M40.46,84.92L23.08,47.62l-8.99,15.79v21.5H0V1.09H14.09V40.58L36.08,1.09h15.79l-19.32,33.53,23.57,50.3h-15.67Z"/>
      <path d="M114.08,84.92l-12.39-34.02h-10.57v34.02h-14.09V1.09h24.42c15.79,0,25.63,8.38,25.63,25.03,0,11.54-4.37,18.95-11.91,22.35l14.21,36.45h-15.31Zm-13.97-46.17c8.5,0,12.88-3.16,12.88-12.64s-4.37-12.88-12.88-12.88h-8.99v25.51h8.99Z"/>
      <path d="M166.93,84.92h-14.09V1.09h14.09V84.92Z"/>
      <path d="M230.95,21.26c-3.04-5.71-6.56-8.99-13.24-8.99s-9.96,3.89-9.96,10.93c0,8.02,4.37,11.18,13.49,13.73,14.34,4.01,20.9,10.57,20.9,25.03,0,12.51-7.53,24.06-23.81,24.06-11.91,0-20.41-4.37-26.36-13.73l10.81-7.53c4.01,5.95,7.53,8.99,14.7,8.99,8.14,0,10.57-5.1,10.57-11.18,0-6.68-2.67-10.81-13.85-13.97-13.24-3.77-20.53-11.18-20.53-25.39,0-12.63,7.29-23.2,23.69-23.2,10.93,0,18.95,4.37,24.05,13.73l-10.45,7.53Z"/>
    </g>
  </g>
</svg>